<svg xmlns="http://www.w3.org/2000/svg" xmlns:svg="http://www.w3.org/2000/svg" id="svg2" width="1074.34" height="380.09" version="1.1" viewBox="0 0 1007.194 356.334"><defs id="defs4"><marker id="marker4792" orient="auto" refX="0" refY="0" style="overflow:visible"><path id="path4794" d="M 0,0 5,-5 -12.5,0 5,5 0,0 Z" transform="matrix(-0.4,0,0,-0.4,-4,0)" style="fill:gray;fill-opacity:1;fill-rule:evenodd;stroke:gray;stroke-width:1pt;stroke-opacity:1"/></marker><marker id="marker4782" orient="auto" refX="0" refY="0" style="overflow:visible"><path id="path4784" d="M 0,0 5,-5 -12.5,0 5,5 0,0 Z" transform="matrix(-0.4,0,0,-0.4,-4,0)" style="fill:gray;fill-opacity:1;fill-rule:evenodd;stroke:gray;stroke-width:1pt;stroke-opacity:1"/></marker><marker style="overflow:visible" id="marker5474" orient="auto" refX="0" refY="0"><path style="fill:gray;fill-opacity:1;fill-rule:evenodd;stroke:gray;stroke-width:1pt;stroke-opacity:1" id="path5476" d="M 0,0 5,-5 -12.5,0 5,5 0,0 Z" transform="matrix(-0.4,0,0,-0.4,-4,0)"/></marker><marker style="overflow:visible" id="marker5464" orient="auto" refX="0" refY="0"><path style="fill:gray;fill-opacity:1;fill-rule:evenodd;stroke:gray;stroke-width:1pt;stroke-opacity:1" id="path5466" d="M 0,0 5,-5 -12.5,0 5,5 0,0 Z" transform="matrix(-0.4,0,0,-0.4,-4,0)"/></marker><marker style="overflow:visible" id="marker5454" orient="auto" refX="0" refY="0"><path style="fill:gray;fill-opacity:1;fill-rule:evenodd;stroke:gray;stroke-width:1pt;stroke-opacity:1" id="path5456" d="M 0,0 5,-5 -12.5,0 5,5 0,0 Z" transform="matrix(-0.4,0,0,-0.4,-4,0)"/></marker><marker style="overflow:visible" id="marker5444" orient="auto" refX="0" refY="0"><path style="fill:gray;fill-opacity:1;fill-rule:evenodd;stroke:gray;stroke-width:1pt;stroke-opacity:1" id="path5446" d="M 0,0 5,-5 -12.5,0 5,5 0,0 Z" transform="matrix(-0.4,0,0,-0.4,-4,0)"/></marker><marker style="overflow:visible" id="marker5434" orient="auto" refX="0" refY="0"><path style="fill:gray;fill-opacity:1;fill-rule:evenodd;stroke:gray;stroke-width:1pt;stroke-opacity:1" id="path5436" d="M 0,0 5,-5 -12.5,0 5,5 0,0 Z" transform="matrix(-0.4,0,0,-0.4,-4,0)"/></marker><marker style="overflow:visible" id="marker5424" orient="auto" refX="0" refY="0"><path style="fill:gray;fill-opacity:1;fill-rule:evenodd;stroke:gray;stroke-width:1pt;stroke-opacity:1" id="path5426" d="M 0,0 5,-5 -12.5,0 5,5 0,0 Z" transform="matrix(-0.4,0,0,-0.4,-4,0)"/></marker><marker style="overflow:visible" id="marker5474-4" orient="auto" refX="0" refY="0"><path style="fill:gray;fill-opacity:1;fill-rule:evenodd;stroke:gray;stroke-width:1pt;stroke-opacity:1" id="path5476-1" d="M 0,0 5,-5 -12.5,0 5,5 0,0 Z" transform="matrix(-0.4,0,0,-0.4,-4,0)"/></marker><marker id="marker4792-8" orient="auto" refX="0" refY="0" style="overflow:visible"><path id="path4794-4" d="M 0,0 5,-5 -12.5,0 5,5 0,0 Z" transform="matrix(-0.4,0,0,-0.4,-4,0)" style="fill:gray;fill-opacity:1;fill-rule:evenodd;stroke:gray;stroke-width:1pt;stroke-opacity:1"/></marker><marker id="marker4792-2" orient="auto" refX="0" refY="0" style="overflow:visible"><path id="path4794-40" d="M 0,0 5,-5 -12.5,0 5,5 0,0 Z" transform="matrix(-0.4,0,0,-0.4,-4,0)" style="fill:gray;fill-opacity:1;fill-rule:evenodd;stroke:gray;stroke-width:1pt;stroke-opacity:1"/></marker></defs><metadata id="metadata7"/><g id="layer1" transform="translate(-41.417081,4.8923002)"><rect id="rect4136" width="91.489" height="91.489" x="-62.383" y="58.932" rx="15.278" ry="15.278" style="opacity:1;fill:none;fill-opacity:1;stroke:#666;stroke-width:4.4000001;stroke-linecap:round;stroke-linejoin:round;stroke-miterlimit:4;stroke-dasharray:none;stroke-dashoffset:0;stroke-opacity:1"/><rect id="rect4136-9" width="206.03" height="89.364" x="124.658" y="59.995" rx="15.278" ry="15.278" style="opacity:1;fill:none;fill-opacity:1;stroke:#666;stroke-width:4;stroke-linecap:round;stroke-linejoin:round;stroke-miterlimit:4;stroke-dasharray:none;stroke-dashoffset:0;stroke-opacity:1"/><rect id="rect4136-1" width="91.489" height="91.489" x="436.907" y="58.932" rx="15.278" ry="15.278" style="opacity:1;fill:none;fill-opacity:1;stroke:#666;stroke-width:4.4000001;stroke-linecap:round;stroke-linejoin:round;stroke-miterlimit:4;stroke-dasharray:none;stroke-dashoffset:0;stroke-opacity:1"/><rect id="rect4136-11" width="91.489" height="91.489" x="951.403" y="58.932" rx="15.278" ry="15.278" style="opacity:1;fill:none;fill-opacity:1;stroke:#666;stroke-width:4.4000001;stroke-linecap:round;stroke-linejoin:round;stroke-miterlimit:4;stroke-dasharray:none;stroke-dashoffset:0;stroke-opacity:1"/><g id="g4174" transform="translate(-333.01852,-235.18519)"><g id="content" stroke-miterlimit="10.433" font-size-adjust="none" font-stretch="normal" font-style="normal" font-variant="normal" font-weight="normal" letter-spacing="normal" transform="matrix(1.0629921,0,0,-1.0629921,-186.02362,789.27165)" word-spacing="normal" xml:space="preserve" style="font-style:normal;font-variant:normal;font-weight:400;font-stretch:normal;letter-spacing:normal;word-spacing:normal;text-anchor:start;fill:none;fill-opacity:1;fill-rule:evenodd;stroke:#000;stroke-linecap:butt;stroke-linejoin:miter;stroke-miterlimit:10.43299961;stroke-dasharray:none;stroke-dashoffset:0;stroke-opacity:1"><path id="path4177" d="m 487.66,440.82 0,0.02 0,0.02 0,0.01 -0.01,0.02 0,0.02 0,0.02 -0.01,0.02 0,0.02 -0.01,0.02 -0.01,0.02 -0.01,0.02 -0.01,0.02 -0.01,0.02 -0.01,0.02 -0.01,0.02 -0.02,0.02 -0.02,0.02 -0.01,0.02 -0.02,0.02 -0.02,0.02 -0.02,0.01 -0.03,0.02 -0.02,0.01 -0.03,0.02 -0.02,0.01 -0.03,0.01 -0.02,0.01 -0.01,0 -0.02,0.01 -0.02,0 -0.01,0 -0.02,0.01 -0.02,0 -0.02,0 -0.02,0 -0.02,0 -0.02,0 -0.02,0 c -0.25,0 -0.31,-0.04 -0.9,-0.75 l -2.39,-2.84 c -1.3,2.34 -3.89,3.59 -7.13,3.59 -6.33,0 -12.3,-5.73 -12.3,-11.76 0,-4.03 2.65,-6.33 5.18,-7.06 l 5.32,-1.41 c 1.85,-0.44 4.6,-1.19 4.6,-5.28 0,-4.49 -4.1,-9.16 -8.97,-9.16 -3.19,0 -8.72,1.1 -8.72,7.27 0,1.2 0.25,2.39 0.3,2.69 0.04,0.2 0.09,0.25 0.09,0.35 0,0.5 -0.34,0.55 -0.59,0.55 -0.25,0 -0.35,-0.05 -0.5,-0.2 -0.21,-0.2 -2.99,-11.56 -2.99,-11.7 0,-0.3 0.25,-0.5 0.55,-0.5 0.25,0 0.3,0.04 0.89,0.75 l 2.45,2.82 c 2.14,-2.89 5.52,-3.57 8.41,-3.57 6.78,0 12.66,6.62 12.66,12.79 0,3.44 -1.69,5.14 -2.44,5.83 -1.14,1.16 -1.89,1.34 -6.33,2.5 -1.09,0.3 -2.89,0.8 -3.34,0.89 -1.35,0.45 -3.03,1.89 -3.03,4.53 0,4.05 3.98,8.28 8.71,8.28 4.15,0 7.18,-2.14 7.18,-7.73 0,-1.59 -0.21,-2.49 -0.21,-2.78 0,-0.05 0,-0.5 0.61,-0.5 0.5,0 0.55,0.15 0.74,1 z" style="fill:#000;stroke-width:0"/></g></g><g id="g4235" transform="translate(168.42016,-234.02653)"><g id="g4237" stroke-miterlimit="10.433" font-size-adjust="none" font-stretch="normal" font-style="normal" font-variant="normal" font-weight="normal" letter-spacing="normal" transform="matrix(1.0629921,0,0,-1.0629921,-186.02362,789.27165)" word-spacing="normal" xml:space="preserve" style="font-style:normal;font-variant:normal;font-weight:400;font-stretch:normal;letter-spacing:normal;word-spacing:normal;text-anchor:start;fill:none;fill-opacity:1;fill-rule:evenodd;stroke:#000;stroke-linecap:butt;stroke-linejoin:miter;stroke-miterlimit:10.43299961;stroke-dasharray:none;stroke-dashoffset:0;stroke-opacity:1"><path id="path4239" d="m 474.16,436.39 0.04,0.16 0.04,0.16 0.04,0.15 0.04,0.14 0.04,0.14 0.04,0.13 0.05,0.12 0.05,0.11 0.05,0.11 0.06,0.11 0.07,0.09 0.07,0.09 0.08,0.09 0.08,0.08 0.1,0.07 0.1,0.07 0.12,0.06 0.12,0.06 0.14,0.05 0.15,0.05 0.17,0.04 0.08,0.02 0.09,0.02 0.1,0.02 0.1,0.02 0.1,0.01 0.1,0.02 0.11,0.01 0.12,0.01 0.12,0.02 0.12,0.01 0.13,0.01 0.13,0 0.13,0.01 0.14,0.01 0.15,0.01 0.15,0 0.16,0 0.16,0.01 0.16,0 0.17,0 0.18,0 0.18,0 c 1.19,0 1.6,0 1.6,0.96 0,0.59 -0.55,0.59 -0.75,0.59 -1.46,0 -5.15,-0.16 -6.58,-0.16 -1.5,0 -5.13,0.16 -6.63,0.16 -0.34,0 -1,0 -1,-1 0,-0.55 0.46,-0.55 1.39,-0.55 2.1,0 3.44,0 3.44,-0.95 0,-0.25 0,-0.34 -0.09,-0.8 l -6.72,-26.84 c -0.46,-1.84 -0.61,-2.34 -4.55,-2.34 -1.14,0 -1.59,0 -1.59,-1 0,-0.55 0.61,-0.55 0.75,-0.55 1.45,0 5.08,0.16 6.53,0.16 1.5,0 5.19,-0.16 6.67,-0.16 0.41,0 1,0 1,0.95 0,0.6 -0.41,0.6 -1.5,0.6 -0.89,0 -1.14,0 -2.14,0.09 -1.05,0.11 -1.23,0.3 -1.23,0.84 0,0.41 0.09,0.8 0.18,1.16 z" style="fill:#000;stroke-width:0"/></g></g><g id="g4275" transform="translate(676.77777,-235.18519)"><g id="g4277" stroke-miterlimit="10.433" font-size-adjust="none" font-stretch="normal" font-style="normal" font-variant="normal" font-weight="normal" letter-spacing="normal" transform="matrix(1.0629921,0,0,-1.0629921,-186.02362,789.27165)" word-spacing="normal" xml:space="preserve" style="font-style:normal;font-variant:normal;font-weight:400;font-stretch:normal;letter-spacing:normal;word-spacing:normal;text-anchor:start;fill:none;fill-opacity:1;fill-rule:evenodd;stroke:#000;stroke-linecap:butt;stroke-linejoin:miter;stroke-miterlimit:10.43299961;stroke-dasharray:none;stroke-dashoffset:0;stroke-opacity:1"><path id="path4279" d="m 481.38,423.14 0.47,0.11 0.48,0.12 0.48,0.14 0.48,0.15 0.49,0.16 0.48,0.18 0.48,0.19 0.47,0.2 0.47,0.22 0.47,0.23 0.46,0.24 0.45,0.25 0.43,0.27 0.43,0.28 0.42,0.29 0.4,0.3 0.39,0.31 0.37,0.32 0.36,0.34 0.33,0.35 0.32,0.35 0.29,0.37 0.28,0.38 0.25,0.39 0.22,0.4 0.2,0.41 0.17,0.42 0.15,0.43 0.11,0.44 0.08,0.45 0.05,0.46 0.02,0.47 c 0,4.28 -4.48,7.47 -11,7.47 l -14.2,0 c -1,0 -1.45,0 -1.45,-1 0,-0.55 0.45,-0.55 1.4,-0.55 0.1,0 1.05,0 1.89,-0.09 0.89,-0.11 1.35,-0.16 1.35,-0.8 0,-0.2 -0.05,-0.36 -0.21,-0.95 l -6.67,-26.75 c -0.5,-1.95 -0.59,-2.34 -4.53,-2.34 -0.91,0 -1.34,0 -1.34,-1 0,-0.55 0.59,-0.55 0.68,-0.55 1.41,0 4.89,0.16 6.29,0.16 1.39,0 4.93,-0.16 6.32,-0.16 0.41,0 1,0 1,1 0,0.55 -0.45,0.55 -1.39,0.55 -1.84,0 -3.25,0 -3.25,0.89 0,0.29 0.11,0.54 0.16,0.84 l 3.28,13.2 5.94,0 -0.05,1.11 -5.59,0 3.25,13 c 0.29,1.19 0.43,1.69 1.39,1.85 0.45,0.04 2.04,0.04 3.03,0.04 3.55,0 9.08,0 9.08,-4.93 0,-1.69 -0.8,-5.13 -2.75,-7.07 -1.28,-1.29 -3.92,-2.89 -8.41,-2.89 l 0.05,-1.11 c 4.53,0 5.42,-2.78 5.42,-4.53 0,-0.75 -0.39,-2.28 -0.69,-3.44 -0.36,-1.39 -0.79,-3.23 -0.79,-4.23 0,-5.37 5.96,-5.37 6.62,-5.37 4.23,0 5.97,5.03 5.97,5.73 0,0.59 -0.55,0.59 -0.59,0.59 -0.46,0 -0.55,-0.36 -0.65,-0.7 -1.25,-3.69 -3.39,-4.53 -4.54,-4.53 -1.64,0 -1.99,1.09 -1.99,3.05 0,1.53 0.3,4.07 0.5,5.67 0.1,0.7 0.21,1.64 0.21,2.34 0,3.83 -3.35,5.38 -4.69,5.88 z" style="fill:#000;stroke-width:0"/></g></g><path style="fill:none;fill-rule:evenodd;stroke:gray;stroke-width:2;stroke-linecap:round;stroke-linejoin:miter;stroke-miterlimit:4;stroke-dasharray:none;stroke-opacity:1;marker-end:url(#marker5474)" id="path5132" d="m 43.87037,107.62144 73.61111,0"/><path style="fill:none;fill-rule:evenodd;stroke:gray;stroke-width:2.5;stroke-linecap:round;stroke-linejoin:miter;stroke-miterlimit:4;stroke-dasharray:none;stroke-opacity:1;marker-end:url(#marker5424)" id="path5140" d="m 544.5647,108.10292 397.00282,0"/><rect id="rect4136-11-9" width="91.489" height="91.489" x="605.218" y="257.197" rx="15.278" ry="15.278" style="opacity:1;fill:none;fill-opacity:1;stroke:#666;stroke-width:4.4000001;stroke-linecap:round;stroke-linejoin:round;stroke-miterlimit:4;stroke-dasharray:none;stroke-dashoffset:0;stroke-opacity:1"/><rect id="rect4136-11-9-2" width="91.489" height="91.489" x="954.922" y="254.9" rx="15.278" ry="15.278" style="opacity:1;fill:none;fill-opacity:1;stroke:#666;stroke-width:4.4000001;stroke-linecap:round;stroke-linejoin:round;stroke-miterlimit:4;stroke-dasharray:none;stroke-dashoffset:0;stroke-opacity:1"/><g id="g4576" transform="matrix(3.6,0,0,3.6,699.58936,-1143.2137)"><g id="g4578" stroke-miterlimit="10.433" font-size-adjust="none" font-stretch="normal" font-style="normal" font-variant="normal" font-weight="normal" letter-spacing="normal" transform="matrix(0.27566913,0,0,-0.27566913,-48.242099,517.61131)" word-spacing="normal" xml:space="preserve" style="font-style:normal;font-variant:normal;font-weight:400;font-stretch:normal;letter-spacing:normal;word-spacing:normal;text-anchor:start;fill:none;fill-opacity:1;fill-rule:evenodd;stroke:#000;stroke-linecap:butt;stroke-linejoin:miter;stroke-miterlimit:10.43299961;stroke-dasharray:none;stroke-dashoffset:0;stroke-opacity:1"><path id="path4580" d="m 463.44,410.09 -0.04,-0.18 -0.05,-0.17 -0.04,-0.16 -0.05,-0.15 -0.04,-0.15 -0.05,-0.13 -0.04,-0.13 -0.05,-0.12 -0.06,-0.11 -0.06,-0.11 -0.06,-0.1 -0.07,-0.09 -0.08,-0.09 -0.09,-0.07 -0.09,-0.08 -0.11,-0.06 -0.11,-0.07 -0.12,-0.05 -0.14,-0.05 -0.15,-0.05 -0.16,-0.04 -0.09,-0.02 -0.08,-0.01 -0.1,-0.02 -0.1,-0.02 -0.1,-0.01 -0.1,-0.01 -0.11,-0.01 -0.11,-0.02 -0.12,-0.01 -0.12,-0.01 -0.13,0 -0.13,-0.01 -0.13,-0.01 -0.15,0 -0.14,-0.01 -0.15,0 -0.16,-0.01 -0.16,0 -0.16,0 -0.17,0 -0.18,0 -0.18,0 c -0.84,0 -1.39,0 -1.39,-0.96 0,-0.59 0.44,-0.59 1.39,-0.59 l 16.48,0 -0.89,1.55 -5.62,0 c -0.7,0 -0.8,0 -1.11,0.04 -0.48,0.05 -0.64,0.1 -0.64,0.5 0,0.14 0,0.25 0.25,1.14 l 6.83,27.36 c 0.43,1.74 0.54,1.89 2.68,1.89 l 5.33,0 c 4.89,0 9.02,-2.64 9.02,-9.22 0,-2.43 -1,-10.6 -5.24,-16.09 -1.43,-1.84 -5.37,-5.62 -11.5,-5.62 l 0.89,-1.55 c 10.36,0 20.19,10.51 20.19,21.42 0,7.03 -4.23,12.61 -11.72,12.61 l -16.73,0 c -0.95,0 -1.5,0 -1.5,-0.95 0,-0.6 0.45,-0.6 1.45,-0.6 0.64,0 1.55,-0.04 2.14,-0.09 0.8,-0.11 1.1,-0.25 1.1,-0.8 0,-0.2 -0.05,-0.36 -0.21,-0.95 z" style="fill:#000;stroke-width:0"/></g></g><g id="g4698" transform="matrix(3.6,0,0,3.6,349.942,-1141.3803)"><g id="g4700" stroke-miterlimit="10.433" font-size-adjust="none" font-stretch="normal" font-style="normal" font-variant="normal" font-weight="normal" letter-spacing="normal" transform="matrix(0.27566913,0,0,-0.27566913,-48.242099,517.61131)" word-spacing="normal" xml:space="preserve" style="font-style:normal;font-variant:normal;font-weight:400;font-stretch:normal;letter-spacing:normal;word-spacing:normal;text-anchor:start;fill:none;fill-opacity:1;fill-rule:evenodd;stroke:#000;stroke-linecap:butt;stroke-linejoin:miter;stroke-miterlimit:10.43299961;stroke-dasharray:none;stroke-dashoffset:0;stroke-opacity:1"><path id="path4702" d="m 493.54,436.39 0.04,0.16 0.04,0.16 0.04,0.15 0.04,0.14 0.04,0.14 0.04,0.13 0.04,0.12 0.05,0.11 0.05,0.11 0.05,0.11 0.06,0.09 0.07,0.09 0.07,0.09 0.08,0.08 0.09,0.07 0.09,0.07 0.11,0.06 0.11,0.06 0.13,0.05 0.14,0.05 0.15,0.04 0.16,0.04 0.09,0.02 0.09,0.02 0.09,0.01 0.1,0.02 0.1,0.01 0.1,0.01 0.11,0.02 0.11,0.01 0.12,0.01 0.12,0 0.13,0.01 0.13,0.01 0.13,0.01 0.14,0 0.14,0 0.15,0.01 0.15,0 0.16,0 0.16,0 0.17,0 c 1.3,0 1.69,0 1.69,1 0,0.55 -0.55,0.55 -0.7,0.55 -1.39,0 -4.97,-0.16 -6.38,-0.16 -1.44,0 -4.98,0.16 -6.42,0.16 -0.39,0 -0.95,0 -0.95,-1 0,-0.55 0.45,-0.55 1.4,-0.55 0.1,0 1.05,0 1.89,-0.09 0.89,-0.11 1.35,-0.16 1.35,-0.8 0,-0.2 -0.05,-0.31 -0.21,-0.95 l -2.98,-12.16 -15.2,0 2.95,11.71 c 0.44,1.79 0.59,2.29 4.17,2.29 1.3,0 1.71,0 1.71,1 0,0.55 -0.55,0.55 -0.71,0.55 -1.39,0 -4.98,-0.16 -6.37,-0.16 -1.44,0 -4.99,0.16 -6.42,0.16 -0.41,0 -0.96,0 -0.96,-1 0,-0.55 0.46,-0.55 1.39,-0.55 0.11,0 1.05,0 1.91,-0.09 0.89,-0.11 1.34,-0.16 1.34,-0.8 0,-0.2 -0.06,-0.36 -0.2,-0.95 l -6.67,-26.75 c -0.5,-1.95 -0.61,-2.34 -4.55,-2.34 -0.89,0 -1.34,0 -1.34,-1 0,-0.55 0.61,-0.55 0.7,-0.55 1.39,0 4.94,0.16 6.33,0.16 1.05,0 2.14,-0.07 3.19,-0.07 1.09,0 2.18,-0.09 3.23,-0.09 0.41,0 1,0 1,1 0,0.55 -0.45,0.55 -1.39,0.55 -1.84,0 -3.23,0 -3.23,0.89 0,0.29 0.09,0.54 0.14,0.84 l 3.39,13.66 15.18,0 c -2.09,-8.27 -3.23,-13 -3.43,-13.75 -0.49,-1.6 -1.44,-1.64 -4.53,-1.64 -0.75,0 -1.19,0 -1.19,-1 0,-0.55 0.59,-0.55 0.69,-0.55 1.4,0 4.93,0.16 6.32,0.16 1.05,0 2.14,-0.07 3.19,-0.07 1.11,0 2.2,-0.09 3.25,-0.09 0.39,0 0.99,0 0.99,1 0,0.55 -0.44,0.55 -1.4,0.55 -1.84,0 -3.23,0 -3.23,0.89 0,0.29 0.09,0.54 0.14,0.84 z" style="fill:#000;stroke-width:0"/></g></g><path style="fill:none;fill-rule:evenodd;stroke:gray;stroke-width:2;stroke-linecap:butt;stroke-linejoin:miter;stroke-miterlimit:4;stroke-dasharray:none;stroke-opacity:1;marker-end:url(#marker4782)" id="path4764" d="m 527.81481,159.88591 68.98148,86.57408"/><path style="fill:none;fill-rule:evenodd;stroke:gray;stroke-width:1.57001722;stroke-linecap:butt;stroke-linejoin:miter;stroke-miterlimit:4;stroke-dasharray:none;stroke-opacity:1;marker-end:url(#marker4792)" id="path4766" d="m 884.01851,304.33036 55.63265,0"/><path style="fill:none;fill-rule:evenodd;stroke:gray;stroke-width:2.5;stroke-linecap:butt;stroke-linejoin:miter;stroke-miterlimit:4;stroke-dasharray:none;stroke-opacity:1;marker-end:url(#marker5444)" id="path4768" d="M 686.53644,243.64584 938.98703,159.67331"/><path style="fill:none;fill-rule:evenodd;stroke:gray;stroke-width:2;stroke-linecap:round;stroke-linejoin:miter;stroke-miterlimit:4;stroke-dasharray:none;stroke-opacity:1;marker-end:url(#marker5474-4)" id="path5132-2" d="m 346.71748,106.18221 73.61111,0"/><text id="text4299" x="339.644" y="93.722" xml:space="preserve" style="font-style:normal;font-variant:normal;font-weight:400;font-stretch:normal;font-size:16.25px;line-height:125%;font-family:Sans;-inkscape-font-specification:'Sans, Normal';text-align:start;letter-spacing:0;word-spacing:0;writing-mode:lr-tb;text-anchor:start;fill:#000;fill-opacity:1;stroke:none;stroke-width:1px;stroke-linecap:butt;stroke-linejoin:miter;stroke-opacity:1"><tspan id="tspan4301" x="339.644" y="93.722"><tspan id="tspan4303" x="339.644" y="93.722">symptoms</tspan></tspan></text><text id="text4287" x="741.082" y="195.864" xml:space="preserve" style="font-style:normal;font-variant:normal;font-weight:400;font-stretch:normal;font-size:16.25px;line-height:125%;font-family:Sans;-inkscape-font-specification:'Sans, Normal';text-align:start;letter-spacing:0;word-spacing:0;writing-mode:lr-tb;text-anchor:start;fill:#000;fill-opacity:1;stroke:none;stroke-width:1px;stroke-linecap:butt;stroke-linejoin:miter;stroke-opacity:1"><tspan id="tspan4289" x="741.082" y="195.864"><tspan id="tspan4291" x="741.082" y="195.864">recovery</tspan></tspan></text><flowRoot id="flowRoot4991-8-4-7" transform="translate(313.96165,250.33922)" xml:space="preserve" style="font-style:normal;font-variant:normal;font-weight:400;font-stretch:normal;font-size:16.25px;line-height:125%;font-family:Sans;-inkscape-font-specification:'Sans, Normal';text-align:start;letter-spacing:0;word-spacing:0;writing-mode:lr-tb;text-anchor:start;fill:#000;fill-opacity:1;stroke:none;stroke-width:1px;stroke-linecap:butt;stroke-linejoin:miter;stroke-opacity:1"><flowRegion id="flowRegion4993-1-6-1"><rect id="rect4995-9-2-2" width="112.037" height="27.778" x="156.944" y="-34.809"/></flowRegion><flowPara id="flowPara4997-9-8-2">deterioration</flowPara></flowRoot><text id="text4293" x="696.555" y="95.154" xml:space="preserve" style="font-style:normal;font-variant:normal;font-weight:400;font-stretch:normal;font-size:16.25px;line-height:125%;font-family:Sans;-inkscape-font-specification:'Sans, Normal';text-align:start;letter-spacing:0;word-spacing:0;writing-mode:lr-tb;text-anchor:start;fill:#000;fill-opacity:1;stroke:none;stroke-width:1px;stroke-linecap:butt;stroke-linejoin:miter;stroke-opacity:1"><tspan id="tspan4295" x="696.555" y="95.154"><tspan id="tspan4297" x="696.555" y="95.154">recovery</tspan></tspan></text><text id="text4281" x="887.5" y="298.154" xml:space="preserve" style="font-style:normal;font-variant:normal;font-weight:400;font-stretch:normal;font-size:16.25px;line-height:125%;font-family:Sans;-inkscape-font-specification:'Sans, Normal';text-align:start;letter-spacing:0;word-spacing:0;writing-mode:lr-tb;text-anchor:start;fill:#000;fill-opacity:1;stroke:none;stroke-width:1px;stroke-linecap:butt;stroke-linejoin:miter;stroke-opacity:1"><tspan id="tspan4283" x="887.5" y="298.154"><tspan id="tspan4285" x="887.5" y="298.154">death</tspan></tspan></text><rect id="rect4136-11-9-5" width="91.489" height="91.489" x="778.358" y="257.753" rx="15.278" ry="15.278" style="opacity:1;fill:none;fill-opacity:1;stroke:#666;stroke-width:4.4000001;stroke-linecap:round;stroke-linejoin:round;stroke-miterlimit:4;stroke-dasharray:none;stroke-dashoffset:0;stroke-opacity:1"/><path style="fill:none;fill-rule:evenodd;stroke:gray;stroke-width:1.57001722;stroke-linecap:butt;stroke-linejoin:miter;stroke-miterlimit:4;stroke-dasharray:none;stroke-opacity:1;marker-end:url(#marker4792-8)" id="path4766-7" d="m 712.63835,298.10837 55.63265,0"/><path style="fill:none;fill-rule:evenodd;stroke:gray;stroke-width:1.57001722;stroke-linecap:butt;stroke-linejoin:miter;stroke-miterlimit:4;stroke-dasharray:none;stroke-opacity:1;marker-end:url(#marker4792-2)" id="path4766-6" d="m 768.36235,309.55281 -55.63265,0"/><path id="path4276" d="m 482.35065,50.152765 0,-32.956287 -405.787456,0 0,80.559815" style="fill:none;fill-rule:evenodd;stroke:gray;stroke-width:2;stroke-linecap:butt;stroke-linejoin:miter;stroke-miterlimit:4;stroke-dasharray:none;stroke-opacity:1;marker-end:url(#marker5464)"/><text id="text4830" x="115.027" y="10.232" xml:space="preserve" style="font-style:normal;font-variant:normal;font-weight:400;font-stretch:normal;font-size:16.25px;line-height:125%;font-family:Sans;-inkscape-font-specification:'Sans, Normal';text-align:start;letter-spacing:0;word-spacing:0;writing-mode:lr-tb;text-anchor:start;fill:#000;fill-opacity:1;stroke:none;stroke-width:1px;stroke-linecap:butt;stroke-linejoin:miter;stroke-opacity:1"><tspan id="tspan4832" x="115.027" y="10.232"><tspan id="tspan4834" x="115.027" y="10.232">transmission modulated by interventions</tspan></tspan></text><g id="g4799"><g id="g4801" stroke-miterlimit="10.433" font-size-adjust="none" font-stretch="normal" font-style="normal" font-variant="normal" font-weight="normal" letter-spacing="normal" transform="matrix(0.56727778,0,0,-0.56727778,-124.64398,345.81679)" word-spacing="normal" xml:space="preserve" style="font-style:normal;font-variant:normal;font-weight:400;font-stretch:normal;letter-spacing:normal;word-spacing:normal;text-anchor:start;fill:none;fill-opacity:1;fill-rule:evenodd;stroke:#000;stroke-linecap:butt;stroke-linejoin:miter;stroke-miterlimit:10.43299961;stroke-dasharray:none;stroke-dashoffset:0;stroke-opacity:1"><path id="path4803" d="m 490.8,417.81 0.01,0.02 0.01,0.03 0.02,0.05 0.02,0.05 0.02,0.05 0.02,0.05 0.02,0.05 0.02,0.05 0.01,0.05 0.01,0.03 0.01,0.02 0.01,0.02 0.01,0.03 0,0.02 0.01,0.02 0.01,0.02 0,0.02 0.01,0.02 0,0.02 0.01,0.01 0,0.02 0,0.02 0,0.01 0,0.01 0.01,0.01 c 0,0.05 0,0.55 -0.6,0.55 -0.45,0 -0.55,-0.3 -0.64,-0.61 -3.25,-7.38 -5.08,-10.7 -13.61,-10.7 l -7.26,0 c -0.71,0 -0.8,0 -1.1,0.04 -0.5,0.05 -0.65,0.1 -0.65,0.5 0,0.14 0,0.25 0.25,1.14 l 3.39,13.61 4.93,0 c 4.24,0 4.24,-1.04 4.24,-2.29 0,-0.35 0,-0.96 -0.36,-2.44 -0.09,-0.25 -0.14,-0.41 -0.14,-0.55 0,-0.25 0.19,-0.55 0.64,-0.55 0.41,0 0.55,0.25 0.75,0.99 l 2.84,11.67 c 0,0.3 -0.25,0.55 -0.61,0.55 -0.43,0 -0.54,-0.3 -0.68,-0.91 -1.05,-3.78 -1.96,-4.92 -6.54,-4.92 l -4.68,0 3,12 c 0.43,1.75 0.5,1.94 2.68,1.94 l 7.02,0 c 6.08,0 7.58,-1.44 7.58,-5.53 0,-1.19 0,-1.29 -0.2,-2.64 0,-0.3 -0.05,-0.65 -0.05,-0.9 0,-0.25 0.15,-0.59 0.59,-0.59 0.56,0 0.61,0.3 0.71,1.25 l 1,8.61 c 0.14,1.34 -0.1,1.34 -1.35,1.34 l -25.15,0 c -1,0 -1.5,0 -1.5,-1 0,-0.54 0.45,-0.54 1.39,-0.54 1.84,0 3.23,0 3.23,-0.89 0,-0.21 0,-0.3 -0.25,-1.21 l -6.56,-26.34 c -0.5,-1.95 -0.61,-2.34 -4.55,-2.34 -0.84,0 -1.39,0 -1.39,-0.96 0,-0.59 0.45,-0.59 1.39,-0.59 l 25.86,0 c 1.16,0 1.2,0.05 1.55,0.84 z" style="fill:#000;stroke-width:0"/><path id="path4805" d="m 503.91,420.92 0,0.04 0,0.04 0,0.05 0,0.04 0,0.03 0,0.04 0,0.04 0,0.03 -0.01,0.04 0,0.03 0,0.03 0,0.03 0,0.03 -0.01,0.03 0,0.03 -0.01,0.02 0,0.03 0,0.02 -0.01,0.03 0,0.02 -0.02,0.04 -0.01,0.04 -0.02,0.03 -0.02,0.03 -0.02,0.03 -0.02,0.03 -0.03,0.02 -0.03,0.02 -0.04,0.02 -0.03,0.01 -0.04,0.01 -0.05,0.02 -0.02,0 -0.03,0 -0.02,0.01 -0.03,0 -0.03,0.01 -0.02,0 -0.03,0 -0.03,0 -0.04,0 -0.03,0.01 -0.03,0 -0.04,0 -0.04,0 -0.03,0 -0.04,0 -0.04,0 -0.04,0 -0.05,0 -0.04,0 -0.05,0 c -2.23,-2.2 -5.39,-2.23 -6.82,-2.23 l 0,-1.25 c 0.84,0 3.14,0 5.04,0.97 l 0,-17.77 c 0,-1.16 0,-1.61 -3.48,-1.61 l -1.31,0 0,-1.25 c 0.62,0.03 4.9,0.14 6.2,0.14 1.08,0 5.47,-0.11 6.23,-0.14 l 0,1.25 -1.33,0 c -3.48,0 -3.48,0.45 -3.48,1.61 z" style="fill:#000;stroke-width:0"/><path id="path4807" d="m 570.03,417.65 -0.26,-0.19 -0.24,-0.2 -0.24,-0.19 -0.22,-0.2 -0.22,-0.19 -0.22,-0.19 -0.2,-0.19 -0.2,-0.19 -0.19,-0.18 -0.18,-0.18 -0.18,-0.18 -0.17,-0.18 -0.16,-0.17 -0.15,-0.17 -0.15,-0.17 -0.14,-0.16 -0.13,-0.15 -0.13,-0.16 -0.12,-0.15 -0.11,-0.14 -0.11,-0.14 -0.1,-0.13 -0.09,-0.13 -0.09,-0.12 -0.08,-0.11 -0.08,-0.11 -0.07,-0.11 -0.06,-0.09 -0.06,-0.09 -0.05,-0.08 -0.05,-0.07 -0.04,-0.07 c -2.23,-3.44 -2.64,-6.58 -2.64,-6.62 0,-0.6 0.61,-0.6 1,-0.6 0.85,0 0.89,0.1 1.1,1 1.15,4.88 4.09,9.06 9.72,11.36 0.59,0.19 0.75,0.3 0.75,0.64 0,0.35 -0.3,0.5 -0.41,0.55 -2.19,0.84 -8.22,3.34 -10.11,11.72 -0.16,0.59 -0.2,0.73 -1.05,0.73 -0.39,0 -1,0 -1,-0.59 0,-0.1 0.45,-3.24 2.55,-6.58 1,-1.48 2.44,-3.23 4.58,-4.83 l -37.02,0 c -0.89,0 -1.79,0 -1.79,-1 0,-1 0.9,-1 1.79,-1 z" style="fill:#000;stroke-width:0"/><path id="path4809" d="m 627.48,417.81 0.01,0.02 0,0.03 0.02,0.05 0.02,0.05 0.02,0.05 0.02,0.05 0.02,0.05 0.02,0.05 0.02,0.05 0.01,0.03 0.01,0.02 0,0.02 0.01,0.03 0.01,0.02 0.01,0.02 0,0.02 0.01,0.02 0,0.02 0.01,0.02 0,0.01 0,0.02 0.01,0.02 0,0.01 0,0.01 0,0.01 c 0,0.05 0,0.55 -0.59,0.55 -0.46,0 -0.55,-0.3 -0.64,-0.61 -3.25,-7.38 -5.08,-10.7 -13.61,-10.7 l -7.27,0 c -0.7,0 -0.8,0 -1.09,0.04 -0.5,0.05 -0.66,0.1 -0.66,0.5 0,0.14 0,0.25 0.25,1.14 l 3.39,13.61 4.94,0 c 4.23,0 4.23,-1.04 4.23,-2.29 0,-0.35 0,-0.96 -0.36,-2.44 -0.09,-0.25 -0.14,-0.41 -0.14,-0.55 0,-0.25 0.19,-0.55 0.64,-0.55 0.41,0 0.55,0.25 0.75,0.99 l 2.85,11.67 c 0,0.3 -0.25,0.55 -0.61,0.55 -0.44,0 -0.55,-0.3 -0.69,-0.91 -1.05,-3.78 -1.95,-4.92 -6.53,-4.92 l -4.69,0 3,12 c 0.44,1.75 0.5,1.94 2.69,1.94 l 7.02,0 c 6.07,0 7.57,-1.44 7.57,-5.53 0,-1.19 0,-1.29 -0.2,-2.64 0,-0.3 -0.05,-0.65 -0.05,-0.9 0,-0.25 0.16,-0.59 0.6,-0.59 0.56,0 0.61,0.3 0.7,1.25 l 1,8.61 c 0.14,1.34 -0.09,1.34 -1.34,1.34 l -25.16,0 c -1,0 -1.5,0 -1.5,-1 0,-0.54 0.45,-0.54 1.39,-0.54 1.85,0 3.24,0 3.24,-0.89 0,-0.21 0,-0.3 -0.25,-1.21 l -6.57,-26.34 c -0.5,-1.95 -0.61,-2.34 -4.54,-2.34 -0.85,0 -1.39,0 -1.39,-0.96 0,-0.59 0.45,-0.59 1.39,-0.59 l 25.86,0 c 1.15,0 1.2,0.05 1.54,0.84 z" style="fill:#000;stroke-width:0"/><path id="path4811" d="m 646.52,405.11 -1.19,0 c -0.1,-0.77 -0.45,-2.83 -0.91,-3.18 -0.26,-0.2 -2.95,-0.2 -3.44,-0.2 l -6.42,0 c 3.66,3.23 4.88,4.2 6.97,5.84 2.58,2.07 4.99,4.22 4.99,7.54 0,4.21 -3.69,6.79 -8.16,6.79 -4.31,0 -7.25,-3.03 -7.25,-6.23 0,-1.78 1.5,-1.96 1.86,-1.96 0.83,0 1.84,0.6 1.84,1.85 0,0.62 -0.25,1.84 -2.06,1.84 1.08,2.47 3.45,3.24 5.09,3.24 3.49,0 5.3,-2.71 5.3,-5.53 0,-3.04 -2.16,-5.44 -3.28,-6.69 l -8.39,-8.3 c -0.36,-0.31 -0.36,-0.39 -0.36,-1.36 l 14.36,0 z" style="fill:#000;stroke-width:0"/><path id="path4813" d="m 706.71,417.65 -0.26,-0.19 -0.24,-0.2 -0.24,-0.19 -0.22,-0.2 -0.22,-0.19 -0.22,-0.19 -0.2,-0.19 -0.2,-0.19 -0.19,-0.18 -0.18,-0.18 -0.18,-0.18 -0.17,-0.18 -0.16,-0.17 -0.15,-0.17 -0.15,-0.17 -0.14,-0.16 -0.13,-0.15 -0.13,-0.16 -0.12,-0.15 -0.11,-0.14 -0.11,-0.14 -0.1,-0.13 -0.09,-0.13 -0.09,-0.12 -0.08,-0.11 -0.08,-0.11 -0.07,-0.11 -0.06,-0.09 -0.06,-0.09 -0.05,-0.08 -0.05,-0.07 -0.04,-0.07 c -2.23,-3.44 -2.64,-6.58 -2.64,-6.62 0,-0.6 0.61,-0.6 1,-0.6 0.85,0 0.89,0.1 1.1,1 1.15,4.88 4.09,9.06 9.72,11.36 0.59,0.19 0.75,0.3 0.75,0.64 0,0.35 -0.3,0.5 -0.41,0.55 -2.19,0.84 -8.22,3.34 -10.11,11.72 -0.16,0.59 -0.2,0.73 -1.05,0.73 -0.39,0 -1,0 -1,-0.59 0,-0.1 0.45,-3.24 2.55,-6.58 1,-1.48 2.44,-3.23 4.58,-4.83 l -37.02,0 c -0.89,0 -1.79,0 -1.79,-1 0,-1 0.9,-1 1.79,-1 z" style="fill:#000;stroke-width:0"/><path id="path4815" d="m 764.04,417.81 0.01,0.02 0.01,0.03 0.02,0.05 0.02,0.05 0.02,0.05 0.01,0.05 0.02,0.05 0.02,0.05 0.02,0.05 0.01,0.03 0.01,0.02 0.01,0.02 0,0.03 0.01,0.02 0.01,0.02 0,0.02 0.01,0.02 0,0.02 0.01,0.02 0,0.01 0.01,0.02 0,0.02 0,0.01 0,0.01 0,0.01 c 0,0.05 0,0.55 -0.59,0.55 -0.45,0 -0.55,-0.3 -0.64,-0.61 -3.25,-7.38 -5.08,-10.7 -13.61,-10.7 l -7.27,0 c -0.7,0 -0.79,0 -1.09,0.04 -0.5,0.05 -0.66,0.1 -0.66,0.5 0,0.14 0,0.25 0.25,1.14 l 3.39,13.61 4.94,0 c 4.24,0 4.24,-1.04 4.24,-2.29 0,-0.35 0,-0.96 -0.36,-2.44 -0.1,-0.25 -0.14,-0.41 -0.14,-0.55 0,-0.25 0.18,-0.55 0.64,-0.55 0.4,0 0.54,0.25 0.75,0.99 l 2.84,11.67 c 0,0.3 -0.25,0.55 -0.61,0.55 -0.44,0 -0.55,-0.3 -0.69,-0.91 -1.04,-3.78 -1.95,-4.92 -6.53,-4.92 l -4.68,0 3,12 c 0.43,1.75 0.5,1.94 2.68,1.94 l 7.02,0 c 6.08,0 7.58,-1.44 7.58,-5.53 0,-1.19 0,-1.29 -0.21,-2.64 0,-0.3 -0.04,-0.65 -0.04,-0.9 0,-0.25 0.15,-0.59 0.59,-0.59 0.56,0 0.61,0.3 0.7,1.25 l 1,8.61 c 0.14,1.34 -0.09,1.34 -1.34,1.34 l -25.16,0 c -1,0 -1.5,0 -1.5,-1 0,-0.54 0.46,-0.54 1.39,-0.54 1.85,0 3.24,0 3.24,-0.89 0,-0.21 0,-0.3 -0.25,-1.21 l -6.56,-26.34 c -0.5,-1.95 -0.61,-2.34 -4.55,-2.34 -0.84,0 -1.39,0 -1.39,-0.96 0,-0.59 0.45,-0.59 1.39,-0.59 l 25.86,0 c 1.15,0 1.2,0.05 1.55,0.84 z" style="fill:#000;stroke-width:0"/><path id="path4817" d="m 775,410.4 0.25,0 0.25,-0.02 0.24,-0.03 0.24,-0.04 0.23,-0.05 0.23,-0.06 0.22,-0.07 0.21,-0.08 0.21,-0.1 0.2,-0.1 0.2,-0.12 0.19,-0.12 0.18,-0.14 0.18,-0.15 0.16,-0.16 0.16,-0.17 0.15,-0.18 0.15,-0.19 0.13,-0.2 0.13,-0.22 0.11,-0.22 0.11,-0.24 0.1,-0.24 0.09,-0.26 0.08,-0.27 0.07,-0.28 0.06,-0.29 0.05,-0.3 0.04,-0.31 0.03,-0.32 0.01,-0.33 0.01,-0.35 c 0,-4.33 -2.52,-5.61 -4.53,-5.61 -1.39,0 -4.47,0.38 -5.92,2.44 1.62,0.06 2.01,1.22 2.01,1.95 0,1.11 -0.84,1.91 -1.92,1.91 -0.97,0 -1.96,-0.59 -1.96,-2.02 0,-3.28 3.63,-5.4 7.85,-5.4 4.84,0 8.19,3.25 8.19,6.73 0,2.72 -2.22,5.44 -6.07,6.24 3.66,1.33 4.99,3.93 4.99,6.06 0,2.75 -3.17,4.81 -7.03,4.81 -3.88,0 -6.83,-1.89 -6.83,-4.67 0,-1.19 0.77,-1.84 1.81,-1.84 1.08,0 1.77,0.79 1.77,1.76 0,1.02 -0.69,1.75 -1.77,1.81 1.22,1.55 3.61,1.93 4.91,1.93 1.56,0 3.76,-0.77 3.76,-3.8 0,-1.47 -0.48,-3.06 -1.39,-4.14 -1.15,-1.33 -2.12,-1.41 -3.87,-1.5 -0.88,-0.08 -0.94,-0.08 -1.11,-0.11 -0.08,0 -0.36,-0.06 -0.36,-0.45 0,-0.49 0.31,-0.49 0.9,-0.49 z" style="fill:#000;stroke-width:0"/></g></g><g id="g4399" transform="matrix(1.6084954,0,0,1.6084954,554.00632,-566.24187)"><g font-weight="normal" style="font-style:normal;font-variant:normal;font-weight:400;font-stretch:normal;letter-spacing:normal;word-spacing:normal;text-anchor:start;fill:none;fill-opacity:1;fill-rule:evenodd;stroke:#000;stroke-linecap:butt;stroke-linejoin:miter;stroke-miterlimit:10.43299961;stroke-dasharray:none;stroke-dashoffset:0;stroke-opacity:1" id="g4401" stroke-miterlimit="10.433" font-size-adjust="none" font-stretch="normal" font-style="normal" font-variant="normal" letter-spacing="normal" transform="matrix(0.50904881,0,0,-0.50904881,-89.083541,755.39566)" word-spacing="normal" xml:space="preserve"><path style="fill:#000;stroke-width:0" id="path4403" d="m 493.38,440.82 0,0.02 0,0.02 0,0.01 -0.01,0.02 0,0.02 0,0.02 -0.01,0.02 0,0.02 -0.01,0.02 -0.01,0.02 -0.01,0.02 0,0.02 -0.02,0.02 -0.01,0.02 -0.01,0.02 -0.01,0.02 -0.02,0.02 -0.02,0.02 -0.02,0.02 -0.02,0.02 -0.02,0.01 -0.02,0.02 -0.03,0.01 -0.02,0.02 -0.03,0.01 -0.01,0.01 -0.02,0 -0.01,0.01 -0.02,0 -0.02,0.01 -0.01,0 -0.02,0 -0.02,0.01 -0.02,0 -0.02,0 -0.02,0 -0.02,0 -0.02,0 -0.02,0 c -0.14,0 -0.2,-0.04 -0.75,-0.59 l -3.48,-3.84 c -0.44,0.7 -2.74,4.43 -8.27,4.43 -11.11,0 -22.33,-11.01 -22.33,-22.56 0,-8.23 5.89,-13.65 13.52,-13.65 4.33,0 8.11,1.98 10.75,4.28 4.64,4.09 5.48,8.62 5.48,8.76 0,0.5 -0.5,0.5 -0.59,0.5 -0.3,0 -0.55,-0.09 -0.66,-0.5 -0.43,-1.44 -1.59,-4.98 -5.03,-7.87 -3.43,-2.78 -6.58,-3.63 -9.15,-3.63 -4.49,0 -9.77,2.6 -9.77,10.36 0,2.85 1.05,10.91 6.02,16.74 3.04,3.54 7.73,6.03 12.15,6.03 5.1,0 8.03,-3.83 8.03,-9.61 0,-2 -0.15,-2.05 -0.15,-2.55 0,-0.5 0.54,-0.5 0.75,-0.5 0.64,0 0.64,0.11 0.89,1 z"/><path style="fill:#000;stroke-width:0" id="path4405" d="m 515.19,441.67 0.01,0.03 0.01,0.03 0.01,0.03 0.01,0.03 0.02,0.02 0,0.03 0.01,0.03 0.01,0.02 0.02,0.05 0.02,0.05 0.01,0.04 0.02,0.05 0.01,0.04 0.01,0.04 0.01,0.03 0.01,0.04 0.01,0.03 0.01,0.03 0,0.03 0.01,0.02 0.01,0.03 0,0.02 0,0.02 0.01,0.02 0,0.02 0,0.02 0.01,0.01 0,0.02 0,0.01 0,0.01 0,0.01 0,0.01 0,0.01 0,0.01 0,0.01 0,0 c 0,0.55 -0.45,0.99 -1,0.99 -0.34,0 -0.7,-0.14 -0.84,-0.44 l -17.3,-47.48 c -0.25,-0.64 -0.25,-0.85 -0.25,-0.89 0,-0.55 0.45,-1 1,-1 0.66,0 0.8,0.34 1.09,1.18 z"/><path style="fill:#000;stroke-width:0" id="path4407" d="m 555.15,427.92 -0.02,0.74 -0.04,0.73 -0.08,0.71 -0.1,0.7 -0.14,0.68 -0.16,0.66 -0.19,0.64 -0.21,0.62 -0.25,0.6 -0.26,0.59 -0.3,0.56 -0.32,0.54 -0.34,0.52 -0.36,0.5 -0.39,0.47 -0.41,0.45 -0.43,0.43 -0.46,0.41 -0.47,0.38 -0.5,0.35 -0.51,0.33 -0.53,0.3 -0.56,0.28 -0.57,0.25 -0.58,0.22 -0.6,0.2 -0.62,0.16 -0.64,0.14 -0.65,0.1 -0.66,0.08 -0.68,0.05 -0.69,0.01 -0.3,-1.25 c 4.1,0 8.58,-2.78 8.58,-10.2 0,-3.59 -1.34,-11.36 -6.28,-17.5 -2.39,-3.03 -6.48,-5.97 -10.66,-5.97 l 0,0 c -4.93,0 -8.42,4.03 -8.42,10.61 0,2.19 0.69,9.47 4.53,15.3 3.44,5.17 8.32,7.76 12.25,7.76 l 0.3,1.25 c -10.75,0 -21.72,-11.31 -21.72,-22.92 0,-8.26 5.58,-13.29 12.77,-13.29 10.54,0 21.67,10.9 21.67,22.81 z"/></g></g></g></svg>